<svg width="21" height="21" viewBox="0 0 21 21" fill="none" xmlns="http://www.w3.org/2000/svg">
<g clip-path="url(#clip0_73_3687)">
<path d="M15.3155 0H5.6845C2.55001 0 0 2.55001 0 5.6845V15.3156C0 18.4499 2.55001 21 5.6845 21H15.3156C18.4499 21 21 18.4499 21 15.3156V5.6845C21 2.55001 18.4499 0 15.3155 0V0ZM10.5 16.242C7.33377 16.242 4.75796 13.6662 4.75796 10.5C4.75796 7.33377 7.33377 4.75796 10.5 4.75796C13.6662 4.75796 16.242 7.33377 16.242 10.5C16.242 13.6662 13.6662 16.242 10.5 16.242ZM16.3793 6.11212C15.4436 6.11212 14.6826 5.35109 14.6826 4.41542C14.6826 3.47975 15.4436 2.71856 16.3793 2.71856C17.315 2.71856 18.0762 3.47975 18.0762 4.41542C18.0762 5.35109 17.315 6.11212 16.3793 6.11212Z" fill="white"/>
<path d="M10.4997 5.98926C8.01247 5.98926 5.98877 8.0128 5.98877 10.5002C5.98877 12.9874 8.01247 15.0111 10.4997 15.0111C12.987 15.0111 15.0106 12.9874 15.0106 10.5002C15.0106 8.0128 12.987 5.98926 10.4997 5.98926Z" fill="white"/>
<path d="M16.3792 3.9502C16.1225 3.9502 15.9136 4.15912 15.9136 4.41579C15.9136 4.67245 16.1225 4.88138 16.3792 4.88138C16.636 4.88138 16.8449 4.67261 16.8449 4.41579C16.8449 4.15896 16.636 3.9502 16.3792 3.9502Z" fill="white"/>
</g>
<defs>
<clipPath id="clip0_73_3687">
<rect width="21" height="21" fill="white"/>
</clipPath>
</defs>
</svg>
